<?xml version="1.0" standalone="no"?>
<!DOCTYPE svg PUBLIC "-//W3C//DTD SVG 20010904//EN"
 "http://www.w3.org/TR/2001/REC-SVG-20010904/DTD/svg10.dtd">
<svg version="1.0" xmlns="http://www.w3.org/2000/svg"
 width="3333.000000pt" height="1662.000000pt" viewBox="0 0 3333.000000 1662.000000"
 preserveAspectRatio="xMidYMid meet">
<metadata>
Created by potrace 1.16, written by Peter Selinger 2001-2019
</metadata>
<g transform="translate(0.000000,1662.000000) scale(0.100000,-0.100000)"
fill="#000000" stroke="none">
<path d="M110 8330 l0 -8190 16460 0 16460 0 0 8190 0 8190 -16460 0 -16460 0
0 -8190z m7196 6777 c36 -19 102 -88 139 -148 15 -23 45 -95 66 -158 91 -271
128 -616 104 -961 -8 -107 -19 -219 -25 -249 -16 -83 -11 -93 10 -21 11 36 35
157 54 270 43 257 53 480 31 710 -16 173 -21 203 -70 374 -19 66 -33 121 -31
124 10 10 49 -23 89 -76 91 -118 126 -221 152 -447 20 -169 23 -526 6 -675
-55 -484 -197 -946 -431 -1396 -123 -238 -131 -248 -228 -311 -47 -30 -119
-80 -160 -110 -57 -42 -77 -52 -83 -42 -4 8 -60 88 -123 179 -143 204 -265
361 -393 509 -54 63 -104 122 -111 131 -22 29 -81 285 -102 434 -30 223 -35
406 -15 576 60 512 274 916 625 1177 67 50 181 113 224 124 53 14 237 5 272
-14z m1238 -1793 c17 -16 21 -52 8 -70 -4 -6 -45 -29 -92 -51 -204 -99 -376
-305 -556 -668 -81 -162 -116 -214 -100 -149 15 58 109 288 160 388 106 209
241 386 357 472 117 85 190 111 223 78z m-3117 -94 c337 -38 794 -449 1272
-1145 133 -194 129 -184 100 -208 -13 -10 -86 -76 -162 -145 l-138 -127 -80
-12 c-336 -48 -792 -35 -1098 33 -447 99 -707 281 -816 571 -86 226 66 536
354 721 167 109 428 140 623 76 114 -37 299 -155 448 -283 l65 -56 -49 57
c-103 120 -309 282 -431 339 -195 90 -454 95 -655 13 -70 -28 -77 -29 -60 -8
46 54 265 148 395 169 102 16 132 17 232 5z m3251 -641 c26 -7 55 -19 65 -27
26 -23 22 -68 -8 -88 -24 -15 -29 -15 -86 6 -87 33 -173 25 -310 -29 -98 -38
-249 -122 -342 -191 -29 -21 -44 -27 -51 -19 -30 30 287 256 449 321 94 37
198 47 283 27z m-914 -369 c87 -33 89 -126 4 -206 -42 -41 -80 -59 -263 -129
-299 -115 -525 -231 -675 -348 -36 -28 -117 -100 -180 -159 -119 -112 -265
-228 -287 -228 -92 0 267 412 572 657 229 184 511 358 654 404 62 20 137 24
175 9z m9801 -2495 c610 -1081 1111 -1962 1114 -1959 3 3 503 886 1111 1962
l1106 1957 3887 3 3887 2 0 -1175 0 -1175 -2164 0 c-1843 0 -2175 -2 -2233
-14 -513 -108 -866 -486 -938 -1006 -23 -162 -1 -340 64 -519 117 -322 387
-581 719 -690 180 -60 198 -61 1079 -61 l803 0 0 355 0 355 -615 0 -615 0 0
395 0 395 1010 0 1010 0 0 -1140 0 -1140 -1237 0 c-1193 0 -1242 1 -1348 20
-337 62 -698 226 -925 422 -362 311 -578 685 -667 1153 -23 122 -27 165 -26
340 0 163 4 222 22 320 76 412 252 756 536 1047 172 175 317 278 545 386 137
65 311 123 465 155 99 21 124 21 1908 24 l1807 3 0 380 0 380 -1768 0 c-1923
0 -1852 2 -2122 -56 -485 -105 -910 -329 -1307 -692 l-93 -84 0 416 0 416
-617 -2 -616 -3 -1341 -2317 c-738 -1275 -1345 -2316 -1351 -2315 -5 2 -604
1045 -1330 2318 l-1322 2314 -4026 3 -4027 2 0 -2700 0 -2700 3020 0 3020 0 0
385 0 385 -2635 0 -2635 0 0 390 0 390 3025 0 3025 0 0 -1165 0 -1165 -3800 0
-3800 0 0 3485 0 3485 4643 0 4644 0 1108 -1965z m-2795 20 l0 -395 -2635 0
-2635 0 0 -380 0 -380 1955 0 1955 0 0 -395 0 -395 -2345 0 -2345 0 0 1170 0
1170 3025 0 3025 0 0 -395z m2150 -1978 l1324 -2267 431 0 431 0 1345 2306
c739 1269 1349 2314 1356 2323 10 13 12 -479 13 -2306 l0 -2323 380 0 380 0 0
415 c0 228 3 415 6 415 3 0 40 -33 82 -74 167 -162 409 -336 622 -449 280
-149 608 -250 945 -292 102 -13 384 -15 1878 -15 l1757 0 0 1130 0 1130 -330
0 -330 0 0 395 0 395 730 0 730 0 0 -1915 0 -1915 -3815 0 -3815 0 -2 1289 -3
1289 -734 -1289 -735 -1289 -895 0 -896 0 -730 1282 -730 1281 -3 -1282 -2
-1281 -390 0 -390 0 0 2713 1 2712 32 -56 c18 -30 628 -1075 1357 -2322z
m-5917 -3617 c37 -11 67 -25 67 -30 0 -17 -43 -120 -50 -120 -4 0 -26 7 -49
15 -65 23 -158 37 -197 29 -79 -15 -126 -94 -88 -152 25 -38 39 -49 124 -88
139 -66 175 -85 204 -112 44 -41 66 -98 66 -172 0 -116 -52 -189 -162 -231
-82 -31 -237 -33 -340 -5 l-68 19 0 73 c0 41 4 74 8 74 4 0 33 -9 63 -20 160
-56 296 -44 334 30 41 80 9 121 -158 203 -198 98 -231 137 -232 273 0 72 3 85
30 130 23 36 44 55 85 76 30 15 66 29 80 32 57 10 217 -3 283 -24z m3020 1
c37 -12 67 -26 67 -31 0 -9 -39 -112 -45 -118 -1 -2 -36 7 -76 19 -139 42
-232 27 -267 -45 -33 -67 17 -126 157 -186 167 -72 223 -124 242 -224 20 -111
-32 -219 -126 -262 -106 -49 -264 -55 -387 -16 l-53 17 -3 73 c-2 39 1 72 5
72 4 0 44 -12 88 -26 179 -58 325 -22 325 81 0 62 -30 90 -172 159 -176 85
-221 129 -234 230 -19 139 50 239 191 277 53 14 215 3 288 -20z m755 0 c39
-12 72 -24 72 -26 0 -6 -42 -119 -46 -124 -2 -2 -36 7 -76 19 -177 55 -295 10
-274 -105 9 -45 41 -69 186 -137 132 -63 170 -92 199 -151 23 -48 28 -128 11
-188 -17 -59 -79 -120 -151 -149 -55 -22 -79 -25 -174 -24 -74 0 -130 7 -172
19 l-63 18 0 74 c0 67 2 75 18 70 160 -53 267 -64 333 -35 44 19 74 74 64 118
-9 42 -71 90 -162 128 -118 50 -183 98 -216 162 -26 50 -28 63 -24 133 3 67 8
83 34 120 57 78 139 109 278 103 54 -2 119 -12 163 -25z m1290 -1 c71 -25 71
-24 32 -113 l-20 -46 -64 24 c-125 47 -200 41 -291 -23 -115 -81 -146 -316
-64 -472 33 -63 86 -101 164 -119 50 -12 52 -11 248 26 l27 5 0 -65 0 -66 -37
-11 c-191 -55 -386 -26 -491 74 -80 74 -129 240 -119 394 16 229 121 366 317
413 62 14 229 3 298 -21z m800 16 c181 -49 281 -204 281 -441 1 -211 -77 -361
-221 -425 -147 -65 -358 -44 -473 47 -172 135 -193 529 -39 713 36 42 96 79
164 101 68 22 214 24 288 5z m2020 -15 c39 -12 72 -24 72 -26 0 -4 -43 -119
-46 -124 -2 -2 -36 7 -76 19 -176 55 -295 10 -274 -103 9 -48 35 -68 180 -136
181 -86 226 -137 226 -260 0 -108 -57 -190 -161 -231 -56 -22 -78 -25 -179
-24 -82 1 -132 7 -175 21 l-60 19 -3 72 c-3 82 -3 82 73 53 109 -41 240 -46
305 -11 27 15 52 76 45 110 -9 41 -69 89 -162 128 -112 48 -183 99 -216 158
-25 44 -27 57 -25 131 3 72 6 86 33 125 33 46 97 87 155 99 62 14 210 3 288
-20z m4947 4 c33 -9 64 -21 69 -26 8 -7 -24 -107 -40 -128 -1 -1 -31 6 -66 17
-135 44 -233 36 -325 -24 -99 -64 -148 -201 -124 -344 33 -200 155 -280 374
-246 l47 7 0 110 0 109 -90 0 -90 0 0 65 0 65 165 0 165 0 -2 -227 -3 -228
-75 -17 c-234 -55 -435 -23 -546 88 -100 101 -142 345 -89 518 43 140 145 232
300 273 68 17 253 11 330 -12z m2825 -6 c36 -12 66 -23 68 -24 2 -2 -46 -121
-53 -133 -1 -1 -24 7 -51 19 -167 71 -307 31 -377 -110 -31 -63 -32 -70 -31
-186 0 -108 3 -126 27 -177 60 -130 201 -173 387 -118 60 17 61 16 58 -57 l-3
-67 -50 -13 c-78 -20 -204 -26 -269 -14 -215 40 -320 191 -319 456 1 196 75
339 210 409 101 51 277 58 403 15z m-17516 -5 c100 -32 146 -96 146 -202 0
-96 -34 -154 -109 -185 l-33 -14 28 -6 c41 -8 95 -47 117 -84 24 -42 33 -130
18 -189 -24 -95 -105 -161 -226 -183 -32 -6 -137 -11 -232 -11 l-173 0 0 451
0 452 203 -5 c162 -4 214 -8 261 -24z m578 -301 c3 -310 4 -330 24 -363 30
-51 90 -81 166 -82 81 -1 137 26 176 85 l27 42 3 323 3 322 75 0 74 0 0 -325
c0 -389 -3 -406 -95 -492 -69 -66 -132 -87 -260 -88 -151 0 -249 47 -308 147
-41 71 -47 128 -47 453 l0 305 79 0 80 0 3 -327z m1748 -123 l0 -450 -75 0
-75 0 0 450 0 450 75 0 75 0 0 -450z m697 113 l208 -337 3 337 2 337 70 0 70
0 0 -450 0 -450 -92 0 -93 0 -210 341 -210 340 -3 -341 -2 -340 -70 0 -70 0 0
450 0 450 94 0 94 0 209 -337z m1163 272 l0 -65 -180 0 -180 0 0 -115 0 -115
170 0 170 0 0 -70 0 -70 -170 0 -170 0 0 -130 0 -130 180 0 180 0 0 -70 0 -70
-255 0 -255 0 0 450 0 450 255 0 255 0 0 -65z m4375 -120 c61 -99 156 -252
211 -341 l99 -160 -3 343 -3 343 70 0 71 0 0 -450 0 -450 -92 0 -93 1 -200
326 c-110 179 -205 332 -211 341 -8 11 -9 -77 -6 -327 l5 -341 -72 0 -71 0 0
450 0 451 92 -3 91 -3 112 -180z m1645 -100 c0 -165 5 -305 11 -334 22 -103
81 -151 187 -153 84 -1 144 29 180 90 l27 47 3 318 3 317 75 0 74 0 0 -317 c0
-389 -4 -408 -91 -495 -73 -72 -133 -92 -269 -92 -190 0 -294 71 -336 228 -10
38 -14 132 -14 364 l0 312 75 0 75 0 0 -285z m1010 -95 l0 -380 185 0 185 0 0
-70 0 -70 -265 0 -265 0 0 450 0 450 80 0 80 0 0 -380z m1170 310 l0 -70 -135
0 -135 0 0 -380 0 -380 -75 0 -75 0 0 380 0 380 -130 0 -130 0 0 70 0 70 340
0 340 0 0 -70z m350 -380 l0 -450 -75 0 -75 0 0 450 0 450 75 0 75 0 0 -450z
m694 110 c115 -187 210 -340 210 -340 1 0 0 153 -2 340 l-4 340 76 0 76 0 0
-450 0 -451 -96 3 -96 3 -205 330 c-112 182 -207 335 -211 342 -4 6 -5 -143
-4 -333 l4 -344 -71 0 -71 0 0 450 0 450 93 0 92 -1 209 -339z m2176 -40 l0
-380 185 0 185 0 0 -70 0 -70 -260 0 -260 0 0 450 0 450 75 0 75 0 0 -380z
m750 0 l0 -380 185 0 185 0 0 -70 0 -70 -265 0 -265 0 0 450 0 450 80 0 80 0
0 -380z"/>
<path d="M16661 4028 c-65 -18 -120 -65 -149 -126 -24 -52 -26 -68 -27 -187 0
-123 2 -134 29 -192 33 -71 85 -112 170 -132 104 -25 220 30 262 125 69 156
45 379 -50 460 -64 55 -156 75 -235 52z"/>
<path d="M8830 3910 l0 -120 75 0 c163 0 225 33 225 120 0 87 -62 120 -225
120 l-75 0 0 -120z"/>
<path d="M8830 3536 l0 -136 113 0 c85 1 120 5 146 18 94 47 90 189 -6 229
-20 8 -84 17 -145 20 l-108 6 0 -137z"/>
</g>
</svg>
