<?xml version="1.0" encoding="UTF-8" standalone="no"?>
<svg
   xmlns:dc="http://purl.org/dc/elements/1.1/"
   xmlns:cc="http://creativecommons.org/ns#"
   xmlns:rdf="http://www.w3.org/1999/02/22-rdf-syntax-ns#"
   xmlns:svg="http://www.w3.org/2000/svg"
   xmlns="http://www.w3.org/2000/svg"
   viewBox="0 0 2666.6667 2666.6667"
   height="2666.6667"
   width="2666.6667"
   xml:space="preserve"
   id="svg2"
   version="1.1"><metadata
     id="metadata8"><rdf:RDF><cc:Work
         rdf:about=""><dc:format>image/svg+xml</dc:format><dc:type
           rdf:resource="http://purl.org/dc/dcmitype/StillImage" /></cc:Work></rdf:RDF></metadata><defs
     id="defs6"><clipPath
       id="clipPath20"
       clipPathUnits="userSpaceOnUse"><path
         id="path18"
         d="M 0,2000 H 2000 V 0 H 0 Z" /></clipPath></defs><g
     transform="matrix(1.3333333,0,0,-1.3333333,0,2666.6667)"
     id="g10"><path
       id="path12"
       style="fill:#000000;fill-opacity:1;fill-rule:nonzero;stroke:none"
       d="M 1789.379,607.07 H 209.62 v 785.86 h 1579.759 z" /><g
       id="g14"><g
         clip-path="url(#clipPath20)"
         id="g16"><g
           transform="translate(1579.8385,1009.4131)"
           id="g22"><path
             id="path24"
             style="fill:#ffffff;fill-opacity:1;fill-rule:nonzero;stroke:none"
             d="m 0,0 v -183.158 h -365.853 v 124.762 l -71.082,-124.762 h -85.406 l -70.948,124.496 V -183.158 H -630.37 V 76.406 l 129.983,-222.484 h 41.9 l 97.721,167.599 31.994,54.885 v -222.484 h 37.08 v 39.76 c 10.71,-10.979 23.293,-20.215 37.215,-27.042 14.992,-7.363 31.592,-11.781 49.128,-12.718 H -37.75 L -37.75,0 Z" /></g><g
           transform="translate(875.6072,1085.8527)"
           id="g26"><path
             id="path28"
             style="fill:#ffffff;fill-opacity:1;fill-rule:nonzero;stroke:none"
             d="m 0,0 h -252.939 v -111.491 h 224.846 v 37.2 H -215.848 V -37.09 H 0 37.09 37.2 L 37.2,0 h -0.11 z" /></g><g
           transform="translate(627.6343,776.1885)"
           id="g30"><path
             id="path32"
             style="fill:#ffffff;fill-opacity:1;fill-rule:nonzero;stroke:none"
             d="m 0,0 v -13.46 h 7.383 c 2.907,0 5.103,0.559 6.583,1.672 1.484,1.114 2.223,2.876 2.223,5.278 0,2.208 -0.752,3.845 -2.264,4.909 C 12.414,-0.532 10.115,0 7.035,0 Z m 0,5.639 h 6.686 c 2.907,0 5.031,0.461 6.364,1.381 1.341,0.922 2.007,2.487 2.007,4.696 0,1.994 -0.72,3.438 -2.165,4.328 -1.444,0.891 -3.733,1.338 -6.873,1.338 H 0 Z M -6.948,23.195 H 5.671 c 5.849,0 10.079,-0.854 12.687,-2.557 2.607,-1.704 3.907,-4.401 3.907,-8.082 0,-2.481 -0.639,-4.542 -1.918,-6.189 C 19.068,4.718 17.226,3.68 14.824,3.255 V 2.964 c 2.983,-0.562 5.179,-1.672 6.582,-3.326 1.405,-1.659 2.108,-3.9 2.108,-6.73 0,-3.819 -1.329,-6.806 -3.995,-8.966 C 16.855,-18.219 13.148,-19.3 8.398,-19.3 H -6.948 Z" /></g><g
           transform="translate(696.8712,799.3836)"
           id="g34"><path
             id="path36"
             style="fill:#ffffff;fill-opacity:1;fill-rule:nonzero;stroke:none"
             d="m 0,0 v -27.497 c 0,-3.139 -0.675,-5.884 -2.021,-8.241 -1.345,-2.352 -3.296,-4.164 -5.844,-5.434 -2.549,-1.27 -5.595,-1.904 -9.141,-1.904 -5.272,0 -9.369,1.394 -12.293,4.184 -2.928,2.791 -4.392,6.628 -4.392,11.511 V 0 h 6.977 v -26.89 c 0,-3.505 0.814,-6.089 2.441,-7.757 1.628,-1.669 4.128,-2.5 7.499,-2.5 6.552,0 9.825,3.439 9.825,10.321 l 0,26.826 z" /></g><g
           transform="translate(735.8115,768.4249)"
           id="g38"><path
             id="path40"
             style="fill:#ffffff;fill-opacity:1;fill-rule:nonzero;stroke:none"
             d="m 0,0 c 0,-3.774 -1.369,-6.743 -4.096,-8.889 -2.737,-2.156 -6.501,-3.229 -11.309,-3.229 -4.807,0 -8.738,0.746 -11.802,2.236 v 6.573 c 1.937,-0.912 3.999,-1.628 6.176,-2.155 2.182,-0.519 4.213,-0.782 6.091,-0.782 2.75,0 4.781,0.522 6.09,1.569 1.306,1.046 1.963,2.451 1.963,4.213 0,1.591 -0.603,2.938 -1.806,4.042 -1.199,1.104 -3.68,2.414 -7.441,3.926 -3.872,1.565 -6.605,3.359 -8.192,5.375 -1.592,2.017 -2.388,4.436 -2.388,7.267 0,3.546 1.261,6.337 3.783,8.371 2.517,2.035 5.899,3.054 10.142,3.054 4.069,0 8.121,-0.894 12.15,-2.674 l -2.21,-5.67 c -3.778,1.587 -7.15,2.384 -10.114,2.384 -2.25,0 -3.954,-0.488 -5.116,-1.467 -1.163,-0.98 -1.744,-2.272 -1.744,-3.882 0,-1.104 0.233,-2.048 0.697,-2.835 0.465,-0.782 1.23,-1.525 2.295,-2.223 1.069,-0.697 2.987,-1.618 5.759,-2.764 3.117,-1.296 5.403,-2.508 6.86,-3.63 C -2.763,7.687 -1.695,6.417 -1.019,5 -0.339,3.587 0,1.923 0,0" /></g><path
           id="path42"
           style="fill:#ffffff;fill-opacity:1;fill-rule:nonzero;stroke:none"
           d="m 747.608,799.384 h 6.95 v -42.496 h -6.95 z" /><g
           transform="translate(804.7529,756.888)"
           id="g44"><path
             id="path46"
             style="fill:#ffffff;fill-opacity:1;fill-rule:nonzero;stroke:none"
             d="m 0,0 h -8.518 l -20.898,33.86 h -0.231 l 0.142,-1.887 c 0.274,-3.604 0.408,-6.9 0.408,-9.882 V 0 h -6.311 v 42.496 h 8.434 L -6.135,8.81 h 0.174 c -0.04,0.442 -0.117,2.065 -0.232,4.864 -0.117,2.8 -0.174,4.987 -0.174,6.557 V 42.496 H 0 Z" /></g><g
           transform="translate(843.5818,756.888)"
           id="g48"><path
             id="path50"
             style="fill:#ffffff;fill-opacity:1;fill-rule:nonzero;stroke:none"
             d="M 0,0 H -24.041 V 42.496 H 0 V 36.624 H -17.092 V 25.055 H -1.073 V 19.242 H -17.092 V 5.903 L 0,5.903 Z" /></g><g
           transform="translate(880.8406,768.4249)"
           id="g52"><path
             id="path54"
             style="fill:#ffffff;fill-opacity:1;fill-rule:nonzero;stroke:none"
             d="m 0,0 c 0,-3.774 -1.369,-6.743 -4.096,-8.889 -2.738,-2.156 -6.503,-3.229 -11.309,-3.229 -4.808,0 -8.739,0.746 -11.801,2.236 v 6.573 c 1.936,-0.912 3.997,-1.628 6.175,-2.155 2.182,-0.519 4.212,-0.782 6.09,-0.782 2.75,0 4.781,0.522 6.091,1.569 1.306,1.046 1.963,2.451 1.963,4.213 0,1.591 -0.603,2.938 -1.807,4.042 -1.198,1.104 -3.681,2.414 -7.44,3.926 -3.873,1.565 -6.606,3.359 -8.193,5.375 -1.591,2.017 -2.388,4.436 -2.388,7.267 0,3.546 1.261,6.337 3.783,8.371 2.518,2.035 5.898,3.054 10.142,3.054 4.069,0 8.12,-0.894 12.15,-2.674 l -2.209,-5.67 c -3.78,1.587 -7.151,2.384 -10.115,2.384 -2.249,0 -3.953,-0.488 -5.116,-1.467 -1.163,-0.98 -1.744,-2.272 -1.744,-3.882 0,-1.104 0.232,-2.048 0.698,-2.835 0.465,-0.782 1.229,-1.525 2.294,-2.223 1.068,-0.697 2.986,-1.618 5.759,-2.764 3.118,-1.296 5.402,-2.508 6.86,-3.63 C -2.764,7.687 -1.696,6.417 -1.02,5 -0.34,3.587 0,1.923 0,0" /></g><g
           transform="translate(917.1418,768.4249)"
           id="g56"><path
             id="path58"
             style="fill:#ffffff;fill-opacity:1;fill-rule:nonzero;stroke:none"
             d="m 0,0 c 0,-3.774 -1.369,-6.743 -4.096,-8.889 -2.737,-2.156 -6.502,-3.229 -11.309,-3.229 -4.808,0 -8.738,0.746 -11.801,2.236 v 6.573 c 1.936,-0.912 3.997,-1.628 6.175,-2.155 2.182,-0.519 4.213,-0.782 6.091,-0.782 2.75,0 4.78,0.522 6.09,1.569 1.306,1.046 1.963,2.451 1.963,4.213 0,1.591 -0.603,2.938 -1.806,4.042 -1.199,1.104 -3.68,2.414 -7.441,3.926 -3.873,1.565 -6.605,3.359 -8.192,5.375 -1.592,2.017 -2.388,4.436 -2.388,7.267 0,3.546 1.261,6.337 3.783,8.371 2.517,2.035 5.899,3.054 10.142,3.054 4.07,0 8.121,-0.894 12.15,-2.674 l -2.21,-5.67 c -3.778,1.587 -7.149,2.384 -10.115,2.384 -2.249,0 -3.953,-0.488 -5.116,-1.467 -1.162,-0.98 -1.743,-2.272 -1.743,-3.882 0,-1.104 0.232,-2.048 0.697,-2.835 0.465,-0.782 1.231,-1.525 2.295,-2.223 1.069,-0.697 2.987,-1.618 5.759,-2.764 3.117,-1.296 5.402,-2.508 6.86,-3.63 C -2.763,7.687 -1.694,6.417 -1.019,5 -0.339,3.587 0,1.923 0,0" /></g><g
           transform="translate(966.0536,794.0354)"
           id="g60"><path
             id="path62"
             style="fill:#ffffff;fill-opacity:1;fill-rule:nonzero;stroke:none"
             d="m 0,0 c -3.997,0 -7.136,-1.414 -9.417,-4.243 -2.29,-2.831 -3.435,-6.735 -3.435,-11.717 0,-5.209 1.1,-9.154 3.301,-11.827 2.2,-2.675 5.384,-4.012 9.551,-4.012 1.798,0 3.542,0.179 5.232,0.537 1.682,0.357 3.435,0.818 5.259,1.381 v -5.961 c -3.336,-1.256 -7.109,-1.886 -11.341,-1.886 -6.216,0 -10.99,1.882 -14.327,5.652 -3.326,3.769 -4.999,9.162 -4.999,16.179 0,4.418 0.814,8.281 2.423,11.595 1.629,3.313 3.963,5.853 7.031,7.615 3.057,1.762 6.653,2.648 10.776,2.648 4.347,0 8.353,-0.913 12.038,-2.737 L 9.589,-2.558 C 8.157,-1.879 6.636,-1.283 5.045,-0.77 3.443,-0.255 1.762,0 0,0" /></g><g
           transform="translate(994.5659,778.1922)"
           id="g64"><path
             id="path66"
             style="fill:#ffffff;fill-opacity:1;fill-rule:nonzero;stroke:none"
             d="m 0,0 c 0,-5.232 1.055,-9.198 3.166,-11.9 2.111,-2.705 5.241,-4.056 9.392,-4.056 4.121,0 7.243,1.337 9.345,4.012 2.102,2.673 3.148,6.658 3.148,11.944 0,5.213 -1.037,9.167 -3.121,11.858 -2.085,2.698 -5.188,4.043 -9.32,4.043 -4.167,0 -7.307,-1.345 -9.426,-4.043 C 1.055,9.167 0,5.213 0,0 m 32.439,0 c 0,-6.914 -1.735,-12.294 -5.188,-16.13 -3.461,-3.837 -8.362,-5.755 -14.693,-5.755 -6.413,0 -11.341,1.905 -14.784,5.71 -3.435,3.81 -5.161,9.221 -5.161,16.237 0,7.012 1.735,12.401 5.187,16.161 3.461,3.756 8.398,5.635 14.81,5.635 6.324,0 11.207,-1.905 14.65,-5.725 C 30.712,12.315 32.439,6.939 32.439,0" /></g><g
           transform="translate(1075.1029,756.888)"
           id="g68"><path
             id="path70"
             style="fill:#ffffff;fill-opacity:1;fill-rule:nonzero;stroke:none"
             d="m 0,0 h -8.514 l -20.902,33.86 h -0.233 l 0.144,-1.887 c 0.269,-3.604 0.403,-6.9 0.403,-9.882 V 0 h -6.306 v 42.496 h 8.434 L -6.135,8.81 h 0.179 c -0.045,0.442 -0.126,2.065 -0.233,4.864 -0.126,2.8 -0.178,4.987 -0.178,6.557 V 42.496 H 0 Z" /></g><g
           transform="translate(1114.4004,768.4249)"
           id="g72"><path
             id="path74"
             style="fill:#ffffff;fill-opacity:1;fill-rule:nonzero;stroke:none"
             d="m 0,0 c 0,-3.774 -1.368,-6.743 -4.096,-8.889 -2.737,-2.156 -6.502,-3.229 -11.314,-3.229 -4.802,0 -8.737,0.746 -11.796,2.236 v 6.573 c 1.94,-0.912 3.998,-1.628 6.181,-2.155 2.172,-0.519 4.203,-0.782 6.08,-0.782 2.755,0 4.786,0.522 6.091,1.569 1.315,1.046 1.968,2.451 1.968,4.213 0,1.591 -0.6,2.938 -1.807,4.042 -1.198,1.104 -3.676,2.414 -7.44,3.926 -3.873,1.565 -6.61,3.359 -8.193,5.375 -1.592,2.017 -2.388,4.436 -2.388,7.267 0,3.546 1.261,6.337 3.783,8.371 2.513,2.035 5.894,3.054 10.142,3.054 4.069,0 8.121,-0.894 12.154,-2.674 l -2.217,-5.67 c -3.775,1.587 -7.147,2.384 -10.107,2.384 -2.254,0 -3.953,-0.488 -5.116,-1.467 -1.163,-0.98 -1.753,-2.272 -1.753,-3.882 0,-1.104 0.233,-2.048 0.698,-2.835 0.465,-0.782 1.234,-1.525 2.299,-2.223 1.064,-0.697 2.987,-1.618 5.759,-2.764 C -7.95,11.144 -5.67,9.932 -4.212,8.81 -2.763,7.687 -1.699,6.417 -1.019,5 -0.339,3.587 0,1.923 0,0" /></g><g
           transform="translate(1159.5122,799.3836)"
           id="g76"><path
             id="path78"
             style="fill:#ffffff;fill-opacity:1;fill-rule:nonzero;stroke:none"
             d="m 0,0 v -27.497 c 0,-3.139 -0.68,-5.884 -2.021,-8.241 -1.352,-2.352 -3.292,-4.164 -5.841,-5.434 -2.549,-1.27 -5.599,-1.904 -9.149,-1.904 -5.268,0 -9.364,1.394 -12.289,4.184 -2.924,2.791 -4.391,6.628 -4.391,11.511 V 0 h 6.976 v -26.89 c 0,-3.505 0.815,-6.089 2.442,-7.757 1.627,-1.669 4.132,-2.5 7.495,-2.5 6.555,0 9.829,3.439 9.829,10.321 l 0,26.826 z" /></g><g
           transform="translate(1173.9464,756.888)"
           id="g80"><path
             id="path82"
             style="fill:#ffffff;fill-opacity:1;fill-rule:nonzero;stroke:none"
             d="M 0,0 V 42.496 H 6.95 V 5.956 H 24.944 V 0 Z" /></g><g
           transform="translate(1224.4595,756.888)"
           id="g84"><path
             id="path86"
             style="fill:#ffffff;fill-opacity:1;fill-rule:nonzero;stroke:none"
             d="m 0,0 h -6.939 v 36.535 h -12.504 v 5.961 H 12.504 V 36.535 H 0 Z" /></g><path
           id="path88"
           style="fill:#ffffff;fill-opacity:1;fill-rule:nonzero;stroke:none"
           d="m 1247.043,799.384 h 6.948 v -42.496 h -6.948 z" /><g
           transform="translate(1304.1919,756.888)"
           id="g90"><path
             id="path92"
             style="fill:#ffffff;fill-opacity:1;fill-rule:nonzero;stroke:none"
             d="m 0,0 h -8.515 l -20.901,33.86 h -0.232 l 0.143,-1.887 c 0.268,-3.604 0.403,-6.9 0.403,-9.882 V 0 h -6.306 v 42.496 h 8.434 L -6.136,8.81 h 0.18 c -0.045,0.442 -0.126,2.065 -0.233,4.864 -0.126,2.8 -0.179,4.987 -0.179,6.557 V 42.496 H 0 Z" /></g><g
           transform="translate(1336.3612,779.9363)"
           id="g94"><path
             id="path96"
             style="fill:#ffffff;fill-opacity:1;fill-rule:nonzero;stroke:none"
             d="m 0,0 h 15.633 v -21.331 c -2.558,-0.836 -5.007,-1.426 -7.369,-1.775 -2.352,-0.349 -4.891,-0.523 -7.629,-0.523 -6.431,0 -11.394,1.905 -14.882,5.71 -3.488,3.809 -5.232,9.18 -5.232,16.121 0,6.837 1.968,12.19 5.903,16.058 3.935,3.863 9.346,5.8 16.251,5.8 4.435,0 8.64,-0.854 12.61,-2.558 l -2.442,-5.786 c -3.444,1.587 -6.895,2.383 -10.347,2.383 -4.535,0 -8.121,-1.427 -10.751,-4.27 -2.638,-2.854 -3.953,-6.744 -3.953,-11.69 0,-5.191 1.181,-9.14 3.56,-11.841 2.37,-2.706 5.787,-4.056 10.249,-4.056 2.244,0 4.651,0.282 7.208,0.846 v 10.955 l -8.809,0 z" /></g><g
           transform="translate(1384.7997,756.888)"
           id="g98"><path
             id="path100"
             style="fill:#ffffff;fill-opacity:1;fill-rule:nonzero;stroke:none"
             d="M 0,0 V 42.496 H 6.949 V 5.956 h 17.995 l 0,-5.956 z" /></g><g
           transform="translate(1420.6366,756.888)"
           id="g102"><path
             id="path104"
             style="fill:#ffffff;fill-opacity:1;fill-rule:nonzero;stroke:none"
             d="M 0,0 V 42.496 H 6.949 V 5.956 h 17.994 l 0,-5.956 z" /></g><g
           transform="translate(1474.5573,794.0354)"
           id="g106"><path
             id="path108"
             style="fill:#ffffff;fill-opacity:1;fill-rule:nonzero;stroke:none"
             d="m 0,0 c -3.999,0 -7.137,-1.414 -9.417,-4.243 -2.291,-2.831 -3.435,-6.735 -3.435,-11.717 0,-5.209 1.1,-9.154 3.3,-11.827 2.2,-2.675 5.384,-4.012 9.552,-4.012 1.797,0 3.541,0.179 5.231,0.537 1.681,0.357 3.435,0.818 5.26,1.381 v -5.961 c -3.337,-1.256 -7.11,-1.886 -11.341,-1.886 -6.215,0 -10.991,1.882 -14.327,5.652 -3.328,3.769 -5,9.162 -5,16.179 0,4.418 0.814,8.281 2.433,11.595 1.619,3.313 3.953,5.853 7.021,7.615 3.059,1.762 6.654,2.648 10.777,2.648 4.346,0 8.352,-0.913 12.037,-2.737 L 9.588,-2.558 C 8.157,-1.879 6.636,-1.283 5.044,-0.77 3.443,-0.255 1.762,0 0,0" /></g><g
           transform="translate(1579.7754,972.1304)"
           id="g110"><path
             id="path112"
             style="fill:#ffffff;fill-opacity:1;fill-rule:nonzero;stroke:none"
             d="m 0,0 v 37.482 l -69.582,0.027 V -0.034 Z" /></g><g
           transform="translate(1360.7014,1045.1243)"
           id="g114"><path
             id="path116"
             style="fill:#ffffff;fill-opacity:1;fill-rule:nonzero;stroke:none"
             d="m 0,0 c 0.803,0.402 1.473,0.669 2.276,0.803 1.339,0.402 2.677,0.803 4.016,1.072 0.402,0 0.803,0.133 1.205,0.267 1.606,0.402 3.212,0.669 4.819,0.669 0.535,0.134 0.937,0.267 1.472,0.267 h 205.349 v 112.046 h -372.546 l -106.824,-189.152 -106.69,189.152 h -445.503 v -333.993 h 364.514 v 111.509 h -290.085 v -37.213 h 252.871 v -37.216 H -775.211 V 77.909 h 386.735 l 127.306,-223.018 129.046,223.018 h 59.57 V 38.151 c 10.709,10.977 23.292,20.214 37.214,26.907 14.992,7.363 31.592,11.914 49.128,12.851 H 181.387 V 40.695 H 11.78 C -5.89,39.356 -21.953,32.798 -35.34,22.758 -57.963,5.756 -72.554,-21.686 -72.554,-51.671 c 0,-30.79 14.591,-57.563 37.214,-74.564 13.922,-10.307 30.789,-16.867 49.128,-18.338 h 77.619 v -0.067 h 37.543 v 109.128 l -96.357,0.027 v -37.542 l 58.814,0.015 V -107.36 H 13.788 c -0.401,0.134 -0.937,0.134 -1.338,0.268 h -0.134 c -27.844,2.811 -49.664,26.237 -49.664,54.884 0,15.261 6.158,29.049 16.198,39.089 C -15.26,-7.229 -8.032,-2.677 0,0" /></g><g
           transform="translate(552.1575,1185.7213)"
           id="g118"><path
             id="path120"
             style="fill:#ffffff;fill-opacity:1;fill-rule:nonzero;stroke:none"
             d="m 0,0 c -4.819,-2.811 -9.906,-6.292 -15.127,-10.308 -6.425,9.772 -17.536,25.836 -30.521,39.758 -12.985,40.025 -4.016,76.035 15.261,96.249 1.472,1.607 3.079,3.079 4.551,4.417 l 1.071,0.804 c 0.268,0.267 0.402,0.401 0.67,0.535 v 0.134 c 1.204,1.071 2.543,2.008 3.748,2.811 l 0.535,0.402 c 1.339,0.937 2.677,1.74 3.882,2.543 l 0.937,0.402 c 1.339,0.803 2.677,1.338 3.882,1.874 0,0 0.134,0 0.536,0.134 1.606,0.401 7.229,1.338 12.449,-0.268 0,0 0.134,0 0.268,-0.134 1.071,-0.669 5.354,-3.48 8.3,-9.906 0.133,-0.134 0.133,-0.402 0.267,-0.536 0.804,-2.275 1.607,-4.551 2.276,-6.826 6.693,-21.954 5.89,-46.184 0.268,-69.075 7.764,22.222 10.977,46.719 6.291,70.681 -0.937,4.283 -2.142,8.567 -3.614,12.851 l 0.937,-0.669 0.268,-0.134 2.275,-2.276 0.536,-0.803 1.74,-2.276 0.402,-0.669 1.606,-3.079 0.402,-0.803 0.937,-2.544 0.402,-1.071 c 0.267,-1.204 0.535,-2.409 0.803,-3.614 C 34.537,69.074 15.261,25.3 0,0" /></g><g
           transform="translate(610.5002,1233.915)"
           id="g122"><path
             id="path124"
             style="fill:#ffffff;fill-opacity:1;fill-rule:nonzero;stroke:none"
             d="m 0,0 -2.692,-1.301 -3.125,-1.986 -3.575,-2.962 c -1.151,-1.202 -2.524,-2.326 -3.667,-3.771 -2.425,-2.759 -4.856,-5.896 -6.987,-9.243 -4.374,-6.653 -7.961,-13.856 -10.367,-19.373 l -1.033,-2.419 -0.549,0.184 c 1.954,5.895 5.235,14.602 9.817,22.877 1.916,3.594 4.17,7.033 6.492,10.131 1.091,1.601 2.458,2.929 3.594,4.314 1.177,1.359 2.536,2.438 3.673,3.542 l 3.628,2.701 2.89,1.666 c 1.587,0.764 2.49,1.209 2.49,1.209 L 0.777,5.655 C 2.059,6.145 3.498,5.51 3.994,4.229 4.491,2.955 3.856,1.51 2.576,1.014 2.576,1.014 1.641,0.648 0,0" /></g><g
           transform="translate(606.3568,1201.959)"
           id="g126"><path
             id="path128"
             style="fill:#ffffff;fill-opacity:1;fill-rule:nonzero;stroke:none"
             d="m 0,0 c 2.719,1.163 5.523,1.856 8.033,2.065 l 3.66,-0.052 1.582,-0.183 1.053,-0.314 c 1.267,-0.391 1.986,-0.614 1.986,-0.614 l 0.249,-0.091 c 1.261,-0.55 1.843,-2.013 1.3,-3.269 -0.542,-1.267 -2,-1.843 -3.268,-1.306 0,0 -0.693,0.3 -1.915,0.81 l -1.007,0.43 -0.98,0.145 -2.496,0.261 c -2.014,0.039 -4.492,-0.274 -7.072,-1.097 -2.621,-0.694 -5.329,-1.909 -8.002,-3.204 -5.196,-2.575 -10.026,-5.909 -13.622,-8.575 l -0.451,0.718 c 3.322,3.034 7.818,6.798 12.845,10.014 C -5.478,-2.641 -2.778,-1.072 0,0" /></g><g
           transform="translate(531.1407,1170.7281)"
           id="g130"><path
             id="path132"
             style="fill:#ffffff;fill-opacity:1;fill-rule:nonzero;stroke:none"
             d="m 0,0 c -5.22,-4.283 -10.441,-8.969 -15.127,-13.922 -1.338,-0.134 -2.677,-0.401 -4.016,-0.535 l -0.267,-0.134 c -2.008,-0.268 -4.15,-0.402 -6.292,-0.669 h -0.937 c -2.008,-0.268 -4.15,-0.402 -6.158,-0.402 l -1.204,-0.134 c -2.142,-0.134 -4.284,-0.134 -6.56,-0.134 h -1.071 c -2.275,0 -4.551,0 -6.827,0.134 h -0.536 c -2.275,0.134 -4.685,0.268 -6.96,0.536 h -0.536 c -2.276,0.267 -4.551,0.535 -6.827,0.803 l -1.071,0.134 c -2.142,0.401 -4.418,0.803 -6.559,1.204 l -1.071,0.268 c -2.142,0.401 -4.284,0.937 -6.292,1.606 l -0.937,0.268 c -2.008,0.535 -4.15,1.205 -6.158,2.008 l -0.267,0.134 c -1.875,0.803 -3.748,1.606 -5.623,2.543 l -0.535,0.268 c -1.74,0.937 -3.481,2.008 -4.953,3.079 l -0.803,0.535 c -1.473,0.937 -2.811,2.008 -4.016,3.213 l -0.669,0.67 c -1.339,1.204 -2.544,2.409 -3.481,3.748 -3.213,4.283 -5.221,8.701 -6.158,13.118 -0.268,3.213 0.268,6.426 1.339,9.773 3.079,9.37 10.575,17.67 19.946,22.221 9.37,4.685 20.749,5.355 30.521,0.268 9.906,-4.953 18.607,-12.45 26.639,-20.347 -7.229,8.701 -14.993,17.134 -25.033,23.292 -9.906,6.426 -23.426,7.363 -34.671,2.945 -1.205,-0.536 -2.543,-0.937 -3.748,-1.473 9.37,7.229 21.82,10.977 33.734,8.033 l 3.346,-1.071 1.071,-0.402 2.276,-1.071 1.205,-0.535 2.41,-1.339 1.071,-0.669 3.346,-2.142 0.134,-0.134 c 1.472,-1.071 2.945,-2.142 4.551,-3.347 l 0.67,-0.669 c 1.472,-1.205 2.944,-2.41 4.417,-3.748 l 0.803,-0.804 c 1.473,-1.338 2.945,-2.677 4.418,-4.149 l 0.268,-0.268 c 1.339,-1.473 2.677,-2.945 4.149,-4.418 l 0.536,-0.669 c 1.472,-1.473 2.811,-3.079 4.016,-4.551 l 0.803,-0.937 c 1.339,-1.473 2.678,-3.079 3.882,-4.686 l 0.402,-0.401 c 1.204,-1.606 2.409,-3.079 3.614,-4.551 l 0.402,-0.67 c 1.205,-1.472 2.409,-3.079 3.48,-4.552 l 0.67,-0.803 c 1.07,-1.472 2.141,-2.944 3.078,-4.417 l 0.402,-0.536 c 0.937,-1.338 1.874,-2.677 2.677,-4.016 l 0.402,-0.401 c 0.803,-1.339 1.74,-2.543 2.41,-3.748 L -1.74,2.811 Z" /></g><g
           transform="translate(571.1649,1186.1014)"
           id="g134"><path
             id="path136"
             style="fill:#ffffff;fill-opacity:1;fill-rule:nonzero;stroke:none"
             d="M 0,0 0.744,0.092 2.503,0.21 3.124,0.196 5.032,-0.118 5.164,-0.17 6.53,-0.81 6.889,-1.084 7.641,-1.83 7.875,-2.13 8.419,-3.385 8.426,-3.49 8.478,-4.81 8.406,-5.255 8.072,-6.379 7.889,-6.837 6.916,-8.406 6.857,-8.471 5.425,-9.936 4.876,-10.366 3.359,-11.426 2.68,-11.843 0.053,-13.112 H 0.039 c -2.614,-1.046 -5.843,-2.209 -9.419,-3.581 -10.739,-4.106 -24.655,-10.028 -34.963,-19.923 l -3.216,-3.047 -0.792,-0.731 -2.58,-2.366 -0.354,-0.314 -2.582,-2.262 -0.614,-0.522 -1.869,-1.557 -0.419,-0.339 -1.856,-1.426 -0.38,-0.274 -1.195,-0.81 -0.32,-0.196 -1.02,-0.511 -0.131,-0.025 -0.477,-0.027 -0.104,0.052 -0.066,0.197 -0.006,0.182 0.131,0.406 0.111,0.301 0.352,0.653 0.203,0.366 0.889,1.36 c 15.262,21.897 44.801,42.551 57.866,46.814 z" /></g></g></g></g></svg>