<?xml version="1.0" standalone="no"?>
<!DOCTYPE svg PUBLIC "-//W3C//DTD SVG 20010904//EN"
 "http://www.w3.org/TR/2001/REC-SVG-20010904/DTD/svg10.dtd">
<svg version="1.0" xmlns="http://www.w3.org/2000/svg"
 width="3500.000000pt" height="2000.000000pt" viewBox="0 0 3500.000000 2000.000000"
 preserveAspectRatio="xMidYMid meet">

<g transform="translate(0.000000,2000.000000) scale(0.100000,-0.100000)"
fill="#000000" stroke="none">
<path d="M0 10000 l0 -10000 17500 0 17500 0 0 10000 0 10000 -17500 0 -17500
0 0 -10000z m14620 1830 c45 -48 73 -169 73 -315 1 -91 3 -111 10 -85 15 61
12 299 -6 353 -8 26 -11 47 -6 47 4 0 21 -21 36 -47 28 -48 28 -49 28 -223 0
-161 -2 -183 -28 -275 -15 -55 -55 -154 -87 -220 -54 -108 -65 -123 -109 -152
l-50 -32 -88 115 c-48 64 -96 125 -105 137 -30 38 -51 170 -45 282 9 148 45
245 128 339 94 107 192 137 249 76z m367 -546 c2 -6 -10 -17 -27 -24 -45 -19
-107 -85 -157 -170 -51 -85 -48 -59 3 40 63 118 164 205 181 154z m-908 -44
c46 -22 86 -53 150 -118 82 -84 202 -238 205 -265 0 -6 -21 -32 -48 -57 l-49
-45 -135 -3 c-210 -5 -330 24 -417 100 -80 70 -94 135 -48 219 45 83 123 129
218 129 60 0 109 -20 180 -72 l40 -30 -45 42 c-63 59 -131 90 -202 90 -31 0
-68 -4 -82 -10 -36 -13 -32 -4 6 16 83 43 142 44 227 4z m955 -176 c9 -3 16
-13 16 -20 0 -12 -10 -13 -48 -8 -42 5 -56 2 -127 -35 -79 -40 -79 -40 -45
-10 66 58 157 91 204 73z m-276 -140 c4 -26 -31 -52 -103 -79 -100 -36 -183
-85 -263 -154 -89 -77 -117 -90 -81 -38 59 83 212 213 316 268 69 36 126 37
131 3z m6532 -504 l0 -369 -707 -3 -708 -3 -60 -32 c-71 -36 -131 -98 -165
-168 -22 -43 -25 -64 -25 -150 0 -95 2 -103 34 -163 40 -74 93 -124 171 -161
55 -26 56 -26 338 -29 l282 -3 0 110 0 111 -190 0 -190 0 0 125 0 125 315 0
315 0 0 -360 0 -360 -367 0 c-428 1 -483 7 -610 70 -149 74 -259 200 -310 355
-33 101 -36 246 -9 340 62 209 231 377 432 429 53 14 144 16 633 16 l571 0 0
121 0 120 -597 -4 c-533 -3 -605 -5 -658 -21 -97 -28 -255 -110 -327 -170 -37
-31 -70 -56 -73 -56 -3 0 -5 56 -5 125 l0 125 -192 0 -193 0 -21 -38 c-15 -28
-538 -928 -784 -1350 l-37 -63 -205 358 c-113 197 -295 513 -403 703 -109 190
-204 355 -211 368 l-14 22 -1260 0 -1260 0 0 -840 0 -840 945 0 945 0 0 115 0
115 -825 0 -825 0 0 125 0 125 948 -2 947 -3 0 -360 0 -360 -1192 -3 -1193 -2
0 1085 0 1085 1458 0 1459 0 343 -605 c188 -333 346 -605 349 -605 4 0 162
272 350 605 l344 605 1216 3 c669 1 1217 3 1219 5 1 1 2 -164 2 -368z m-4350
-240 l0 -120 -830 0 -830 0 0 -120 0 -120 615 0 616 0 -3 -122 -3 -123 -732
-3 -733 -2 0 365 0 365 950 0 950 0 0 -120z m658 -600 l420 -715 139 -3 139
-3 420 716 419 715 5 -713 5 -712 118 -3 117 -3 0 126 c0 69 4 125 8 125 5 0
19 -12 33 -26 63 -68 208 -153 334 -195 70 -24 70 -24 678 -27 l607 -3 0 351
0 350 -105 0 -106 0 3 123 3 122 228 3 227 2 0 -600 0 -600 -1195 0 -1195 0
-2 400 -3 400 -229 -400 -230 -400 -280 2 -280 3 -225 393 -226 394 -3 -396
-2 -396 -125 0 -125 0 0 847 c0 465 2 844 4 842 3 -2 193 -326 424 -719z
m-2848 -1179 c33 -24 39 -78 12 -111 -19 -24 -19 -24 4 -43 18 -13 24 -28 24
-56 0 -73 -46 -101 -172 -101 l-68 0 0 163 c0 90 3 167 8 171 13 15 165 -4
192 -23z m190 -104 c4 -112 7 -130 24 -143 29 -21 82 -18 106 6 18 18 20 33
20 146 l0 125 28 -3 27 -3 3 -118 c3 -133 -8 -171 -57 -200 -36 -21 -112 -22
-152 -1 -46 23 -59 66 -59 197 0 63 3 117 7 121 4 4 16 6 28 4 19 -3 20 -12
25 -131z m492 115 c6 -6 7 -19 4 -30 -6 -18 -11 -19 -36 -11 -39 14 -81 8 -94
-13 -16 -26 1 -47 65 -80 63 -33 79 -51 79 -91 0 -60 -46 -97 -122 -97 -70 0
-88 8 -88 41 0 27 1 27 29 18 42 -15 102 -7 115 14 16 25 -2 47 -66 80 -55 28
-78 57 -78 100 0 28 26 66 54 78 25 11 125 4 138 -9z m163 -152 l0 -165 -27
-3 -28 -3 0 171 0 171 28 -3 27 -3 0 -165z m231 83 c31 -49 68 -107 83 -130
l26 -41 0 126 0 127 25 0 25 0 0 -165 0 -165 -34 0 c-33 0 -37 5 -110 122
l-76 122 -3 -125 -3 -124 -24 0 -25 0 0 170 0 170 30 0 c27 0 36 -9 86 -87z
m462 60 c3 -22 0 -23 -62 -23 l-66 0 0 -45 0 -45 60 0 c57 0 60 -1 60 -25 0
-24 -3 -25 -60 -25 l-60 0 0 -50 0 -50 65 0 c63 0 65 -1 65 -25 0 -25 0 -25
-95 -25 l-95 0 0 170 0 171 93 -3 c87 -3 92 -4 95 -25z m274 9 c6 -6 7 -19 4
-30 -6 -18 -11 -19 -39 -11 -46 13 -73 11 -91 -6 -25 -25 -5 -56 54 -84 70
-34 95 -67 86 -116 -9 -47 -53 -75 -118 -75 -68 0 -98 14 -98 46 0 21 3 25 18
19 9 -4 40 -10 67 -12 38 -4 54 -1 64 10 22 28 8 50 -54 85 -73 40 -85 55 -85
102 0 36 24 69 60 84 21 8 121 -1 132 -12z m279 1 c6 -6 8 -20 5 -31 -6 -18
-11 -19 -36 -11 -39 14 -81 8 -94 -13 -16 -27 2 -49 67 -80 31 -15 61 -36 66
-47 18 -32 13 -78 -12 -106 -25 -30 -88 -43 -151 -31 -32 6 -36 11 -36 36 0
28 2 29 26 20 28 -11 84 -13 108 -4 9 4 16 18 16 33 0 24 -9 32 -63 59 -64 33
-87 60 -87 105 0 28 26 66 54 78 27 11 123 6 137 -8z m463 7 c26 -10 32 -25
18 -47 -5 -9 -17 -9 -48 -1 -99 27 -165 -70 -120 -177 19 -45 48 -59 113 -52
50 5 53 4 53 -18 0 -28 -16 -35 -83 -35 -59 0 -106 23 -134 67 -26 39 -25 156
2 201 35 58 131 88 199 62z m336 -8 c47 -26 73 -81 73 -152 0 -106 -57 -170
-153 -170 -59 0 -109 26 -135 70 -28 48 -28 152 0 199 39 66 142 92 215 53z
m319 -114 l81 -132 0 132 0 132 25 0 25 0 0 -170 0 -170 -34 0 c-33 0 -37 4
-113 128 l-78 127 -3 -127 -3 -128 -24 0 -25 0 0 163 c0 90 3 167 7 170 3 4
18 7 33 7 24 0 37 -15 109 -132z m400 121 c35 -12 35 -13 21 -38 -8 -16 -14
-17 -49 -8 -52 14 -94 -3 -89 -35 2 -16 22 -33 68 -58 97 -52 113 -110 48
-165 -23 -20 -41 -25 -81 -25 -81 0 -97 7 -97 42 0 25 3 29 18 23 9 -4 40 -10
67 -12 38 -4 54 -1 64 10 22 27 8 51 -50 82 -73 39 -86 50 -92 82 -16 84 72
137 172 102z m181 -122 c6 -143 12 -157 75 -157 63 0 70 14 73 160 l4 131 26
-3 27 -3 0 -132 0 -133 -32 -31 c-26 -26 -42 -33 -86 -37 -68 -5 -113 16 -133
63 -15 36 -21 255 -7 269 4 4 16 6 28 4 19 -3 20 -12 25 -131z m370 -12 l0
-145 70 0 c68 0 70 -1 70 -25 0 -25 0 -25 -95 -25 l-95 0 0 170 0 170 25 0 25
0 0 -145z m438 118 c3 -21 0 -23 -47 -23 l-51 0 0 -146 0 -145 -27 3 -28 3 -3
143 -3 142 -44 0 c-41 0 -45 2 -45 25 l0 26 123 -3 c118 -3 122 -4 125 -25z
m132 -144 l0 -170 -27 3 -28 3 -3 155 c-1 85 0 160 2 167 3 7 17 13 31 13 l25
0 0 -171z m257 44 l78 -126 3 126 3 127 24 0 25 0 0 -170 0 -170 -33 0 c-30 0
-36 7 -112 128 l-80 129 0 -126 0 -126 -25 0 -25 0 -3 155 c-1 85 0 160 2 167
3 7 19 13 35 13 28 0 36 -10 108 -127z m495 109 c7 -7 6 -17 -1 -31 -10 -17
-16 -19 -37 -11 -52 20 -94 12 -130 -24 -31 -31 -34 -40 -34 -91 0 -49 4 -60
29 -86 25 -24 37 -29 80 -29 l51 0 0 40 c0 39 -1 40 -35 40 -31 0 -35 3 -35
25 0 24 3 25 60 25 l60 0 0 -84 0 -83 -31 -7 c-149 -29 -239 32 -239 163 0
113 71 176 188 168 35 -3 68 -9 74 -15z m318 -127 l0 -145 70 0 c68 0 70 -1
70 -25 l0 -26 -97 3 c-94 3 -97 4 -96 26 0 12 1 87 2 167 l1 145 25 0 25 0 0
-145z m280 0 l0 -145 70 0 c68 0 70 -1 70 -25 l0 -26 -97 3 -98 3 -3 155 c-1
85 0 160 2 167 3 7 17 13 31 13 l25 0 0 -145z m452 127 c6 -6 6 -17 -1 -30 -9
-17 -15 -18 -49 -9 -82 22 -132 -24 -132 -121 0 -46 4 -58 31 -84 28 -29 33
-30 90 -25 56 5 59 4 59 -18 0 -26 -22 -35 -90 -35 -58 0 -108 27 -132 71 -26
47 -22 166 7 205 36 47 82 66 149 61 32 -3 63 -10 68 -15z"/>
<path d="M14610 8335 l0 -45 43 0 c48 0 67 13 67 47 0 26 -32 43 -81 43 -28 0
-29 -2 -29 -45z"/>
<path d="M14610 8189 l0 -52 51 5 c53 5 69 18 69 55 0 28 -27 43 -79 43 l-41
0 0 -51z"/>
<path d="M17496 8357 c-45 -45 -41 -168 7 -202 22 -15 73 -20 102 -9 26 10 45
59 45 114 0 83 -28 119 -93 120 -26 0 -45 -7 -61 -23z"/>
</g>
</svg>
